<?xml version="1.0" standalone="no"?>
<!DOCTYPE svg PUBLIC "-//W3C//DTD SVG 20010904//EN"
 "http://www.w3.org/TR/2001/REC-SVG-20010904/DTD/svg10.dtd">
<svg version="1.0" xmlns="http://www.w3.org/2000/svg"
 width="64.000000pt" height="64.000000pt" viewBox="0 0 64.000000 64.000000"
 preserveAspectRatio="xMidYMid meet">

<g transform="translate(0.000000,64.000000) scale(0.100000,-0.100000)"
fill="#000000" stroke="none">
<path d="M0 320 l0 -320 320 0 320 0 0 320 0 320 -320 0 -320 0 0 -320z m456
86 c19 -26 19 -146 0 -172 -13 -17 -27 -19 -136 -19 -146 0 -150 3 -150 105 0
66 10 92 40 103 8 4 64 5 123 4 95 -2 110 -5 123 -21z"/>
<path d="M290 320 l0 -52 33 21 c17 11 32 25 32 31 0 6 -15 20 -32 31 l-33 21
0 -52z"/>
</g>
</svg>
